# xmcd CD database file
#
# Track frame offsets:
#	150
#	53342
#	63108
#	76878
#	87151
#	111849
#	127406
#	138942
#	155951
#	167680
#	178116
#	194525
#
# Disc length: 3970 seconds
#
# Revision: 0
# Processed by: cddbd v1.5.1PL0 Copyright (c) Steve Scherf et al.
# Submitted via: CDex 1.51
#
DISCID=a20f800c
DTITLE=大江戸宅急便 - 加平⇔国立府中29分の旅
DYEAR=1900
DGENRE=未分類 (日本)
TTITLE0=データトラック
TTITLE1=Loop the World
TTITLE2=other side
TTITLE3=Phrase gap
TTITLE4=The world of an amoeba
TTITLE5=お母様ぴっぷぽっぷ(略)(2)
TTITLE6=木造建築21階建て マンション新築！
TTITLE7=A waging-war person is shot down.
TTITLE8=冬物処分市
TTITLE9=おうむ2002
TTITLE10=どらむすこんべーす(嘘)
TTITLE11=ごあいさつ
EXTD=
EXTT0=
EXTT1=
EXTT2=
EXTT3=
EXTT4=
EXTT5=
EXTT6=
EXTT7=
EXTT8=
EXTT9=
EXTT10=
EXTT11=
PLAYORDER=
